<?xml version="1.0" standalone="no"?><!DOCTYPE svg PUBLIC "-//W3C//DTD SVG 1.1//EN" "http://www.w3.org/Graphics/SVG/1.1/DTD/svg11.dtd"><svg t="1679534170912" class="icon" viewBox="0 0 1024 1024" version="1.1" xmlns="http://www.w3.org/2000/svg" p-id="9312" width="64" height="64" xmlns:xlink="http://www.w3.org/1999/xlink"><path d="M850.944 146.724571c-19.2-5.705143-259.84-2.340571-290.121143-2.852571-3.145143-0.073143-6.290286-0.146286-9.398857-0.621714-5.997714-0.914286-8.96-3.547429-9.691429-9.874286-0.987429-8.777143-0.585143-61.696 0.182858-79.286857 0.658286-15.030857 4.022857-18.907429 18.761142-20.699429 4.900571-0.512 329.179429 4.096 337.334858 3.657143 33.060571-1.718857 60.269714 8.923429 81.005714 35.730286 11.227429 14.482286 18.102857 29.622857 17.846857 48.420571-0.548571 44.105143-2.450286 786.285714-2.925714 810.898286-0.512 22.125714-0.621714 56.32-17.883429 70.290286-14.592 11.885714-40.96 12.617143-52.589714 13.385143a1024 1024 0 0 1-79.286857 2.413714c-6.912-0.109714-270.482286-1.572571-283.794286-0.512-12.690286 1.024-16.676571-3.181714-18.578286-16.091429-0.475429-3.072-0.073143-54.747429-0.036571-77.458285 0-14.921143 4.278857-19.675429 14.957714-22.674286 10.971429-2.962286 22.564571-2.194286 36.169143-1.572572 7.460571 0.329143 244.882286 6.217143 269.897143-4.022857 18.468571-7.497143 26.770286-36.498286 27.062857-59.538285 0.292571-24.539429 3.364571-602.697143 3.730286-617.764572 0.182857-6.582857 2.56-58.404571-42.642286-71.826286M120.283429 218.550857c0.365714 15.104 3.437714 593.188571 3.766857 617.764572 0.256 23.04 8.594286 52.004571 27.062857 59.538285 24.978286 10.24 262.4 4.315429 269.897143 4.022857 13.568-0.658286 25.161143-1.426286 36.132571 1.572572 10.678857 2.962286 14.994286 7.716571 14.994286 22.674286 0 22.674286 0.438857 74.386286 0 77.494857-1.974857 12.873143-5.961143 17.078857-18.651429 16.091428-13.312-1.097143-276.845714 0.365714-283.794285 0.475429a1023.414857 1023.414857 0 0 1-79.250286-2.413714c-11.593143-0.768-38.034286-1.499429-52.589714-13.348572-17.261714-14.006857-17.371429-48.201143-17.846858-70.363428C19.456 907.446857 17.554286 165.302857 17.005714 121.161143 16.749714 102.4 23.588571 87.222857 34.889143 72.777143c20.699429-26.806857 47.908571-37.449143 81.005714-35.730286 8.118857 0.438857 332.434286-4.169143 337.334857-3.620571 14.738286 1.755429 18.102857 5.632 18.724572 20.662857 0.804571 17.627429 1.206857 70.582857 0.182857 79.286857-0.694857 6.326857-3.657143 8.96-9.691429 9.874286-3.108571 0.475429-6.217143 0.548571-9.398857 0.621714-30.281143 0.512-270.921143-2.852571-290.121143 2.852571-45.165714 13.458286-42.825143 65.28-42.642285 71.862858" fill="#EF3E22" p-id="9313"></path><path d="M421.741714 843.812571c-2.742857-0.365714-6.107429-4.681143-6.948571-7.826285-1.389714-4.717714-0.987429-9.947429-0.987429-14.957715 0.073143-19.565714 1.938286-516.827429 1.536-524.982857-0.182857-4.242286-0.694857-21.833143-2.267428-28.818285-1.316571-5.851429-13.312-13.897143-18.578286-16.713143-13.458286-6.948571-126.025143-3.218286-133.558857-1.755429-9.289143 1.828571-15.872 4.169143-16.676572 15.250286a282.806857 282.806857 0 0 0-0.146285 27.282286c0.731429 10.386286 6.509714 16.859429 16.713143 16.859428 17.554286-0.109714 65.170286 0.731429 72.996571 0.731429 11.337143 0 16.749714 1.609143 16.896 13.531428 0.073143 7.533714 1.097143 15.177143 0.036571 22.564572-1.389714 9.508571-6.692571 13.787429-16.054857 13.787428-11.995429 0-43.885714 0.512-50.102857 0.365715-11.154286-0.219429-24.758857 4.022857-31.012571 13.531428-10.459429 15.872-9.508571 33.097143-10.020572 51.675429-1.133714 41.581714-1.572571 387.584-2.998857 398.811428-1.243429 19.968-2.304 21.504-31.597714 21.504-12.909714 0-16.274286-3.584-19.309714-10.349714-1.755429-3.949714-1.645714-10.020571-1.865143-14.262857-1.536-25.161143-2.413714-334.299429-1.792-360.740572 1.097143-47.250286-0.182857-224.987429 0.292571-230.619428 0.731429-9.033143 5.595429-15.579429 14.299429-18.066286 3.291429-0.950857 111.652571-1.389714 231.862857-1.536h9.179428l357.156572 0.073143c3.766857 0.036571 7.643429-0.109714 11.300571 0.548571 7.533714 1.462857 12.361143 6.217143 13.677715 13.824 0.731429 4.278857 0.731429 8.777143 0.731428 13.165715 0.073143 25.856 4.169143 535.917714 2.194286 583.753143-0.658286 17.481143-3.803429 20.955429-20.516572 23.588571-7.387429 1.133714-14.262857 1.536-21.723428 0.877714-10.349714-0.877714-14.555429-5.12-15.725714-15.506285-0.804571-7.460571-0.365714-22.601143-0.365715-22.601143s2.267429-144.274286-6.948571-161.243429c-1.170286-2.157714-6.290286-20.077714-22.820572-31.926857-10.678857-7.68-27.136-11.227429-46.336-11.849143a231.021714 231.021714 0 0 1-28.086857-3.218286c-6.948571-1.133714-10.605714-4.571429-10.825143-11.154285a147.382857 147.382857 0 0 1 1.097143-26.331429c1.28-9.179429 6.034286-12.690286 15.542857-13.385143a2301.44 2301.44 0 0 1 71.497143 0.512c17.627429 0.438857 24.612571-8.411429 24.795429-26.185143 0-3.145143 0-4.608-0.109714-7.753142-0.731429-17.92-7.021714-25.6-24.246858-27.282286-20.699429-2.011429-72.265143-3.766857-77.165714-4.900572a12.434286 12.434286 0 0 1-10.386286-11.885714c-0.658286-7.606857-0.621714-16.713143 4.315429-23.332571 4.754286-6.4 10.459429-10.422857 18.797714-10.971429 13.165714-0.804571 44.470857-2.779429 50.724572-2.486857 6.765714 0.365714 19.236571-3.181714 24.612571-7.753143 8.009143-6.802286 16.603429-21.613714 16.603429-54.125714 0.438857-16.347429-0.365714-80.201143-0.073143-96.548572 0.109714-6.546286-0.219429-12.361143-3.693714-17.846857-5.485714-8.777143-10.459429-12.361143-22.454858-12.361143-2.304 0-14.628571 0.146286-16.457142 0.036572-16.713143-0.877714-23.222857 3.072-28.891429 14.994286-1.536 1.206857-37.485714 0.877714-79.616 0.914285-42.203429 0-78.153143 0.292571-79.689143-0.950857-5.632-11.885714-12.141714-15.835429-28.891428-14.957714-1.828571 0.109714-14.116571 0-16.420572 0-12.032 0-17.005714 3.547429-22.491428 12.324571-3.437714 5.485714-3.803429 11.337143-3.657143 17.810286 0.292571 16.384-0.475429 80.237714-0.109715 96.548571 0 32.548571 8.594286 47.36 16.64 54.125715 5.376 4.608 17.810286 8.155429 24.576 7.789714 6.290286-0.292571 37.558857 1.682286 50.724572 2.523429 8.338286 0.512 14.043429 4.534857 18.834286 10.934857 4.937143 6.582857 4.937143 15.725714 4.315428 23.332571a12.470857 12.470857 0 0 1-10.386286 11.885714c-4.900571 1.097143-56.502857 2.889143-77.165714 4.900572-17.188571 1.682286-23.552 9.398857-24.246857 27.282286-0.109714 3.145143-0.182857 4.608-0.146286 7.753142 0.182857 17.810286 7.204571 26.624 24.795429 26.185143a2303.634286 2303.634286 0 0 1 71.533714-0.512c9.508571 0.694857 14.262857 4.205714 15.542857 13.385143 1.206857 8.667429 1.389714 17.554286 1.097143 26.331429-0.256 6.582857-3.913143 10.020571-10.825143 11.154285a230.765714 230.765714 0 0 1-28.123428 3.218286c-19.163429 0.621714-35.620571 4.169143-46.299429 11.849143-16.530286 11.849143-21.686857 29.769143-22.857143 31.926857-9.142857 16.969143-6.875429 161.28-6.875428 161.28s0.402286 15.104-0.438857 22.564572c-1.097143 10.349714-5.339429 14.628571-15.725715 15.506285l-30.208-1.097143z" fill="#EF3E22" p-id="9314"></path><path d="M297.106286 451.218286c0-6.290286 0.073143-10.898286 0.512-17.188572 0.292571-5.266286 2.377143-11.410286 7.533714-13.092571 8.704-2.852571 29.622857-3.876571 40.374857-0.182857 7.241143 2.450286 11.629714 7.533714 11.849143 15.36 0.292571 8.777143-0.804571 230.948571-1.426286 286.939428-0.329143 30.829714-0.219429 98.852571-0.694857 101.961143-2.011429 14.482286-5.595429 17.700571-20.224 19.565714-6.217143 0.731429-18.834286 0.256-25.088 0.256-9.691429 0-14.665143-8.996571-15.469714-17.993142-0.365714-3.766857 0.109714-7.570286 0.219428-11.337143 0.731429-27.648 2.377143-304.457143 2.413715-364.251429M585.508571 821.979429c-0.073143 4.388571-0.365714 8.777143-0.914285 13.165714a8.265143 8.265143 0 0 1-7.387429 7.460571 168.667429 168.667429 0 0 1-26.112 1.645715c-14.957714 0-20.918857-7.936-20.918857-20.333715 0-10.605714 0.365714-21.211429 0.694857-31.817143 0.877714-30.793143 0.804571-61.549714 1.645714-92.306285 0.109714-4.388571-0.073143-8.777143 0.329143-13.165715 1.206857-13.348571 8.667429-20.48 21.942857-22.491428 4.973714-0.731429 10.020571-1.024 14.994286-1.353143 8.045714-0.438857 13.531429 2.925714 15.433143 10.532571 1.353143 5.376 1.609143 11.154286 1.499429 16.822858-0.292571 21.942857-1.170286 109.860571-1.243429 131.84" fill="#EF3E22" p-id="9315"></path><path d="M585.508571 821.979429c-0.073143 4.388571-0.365714 8.777143-0.914285 13.165714a8.265143 8.265143 0 0 1-7.387429 7.460571 168.667429 168.667429 0 0 1-26.112 1.645715c-14.957714 0-20.918857-7.936-20.918857-20.333715 0-10.605714 0.365714-21.211429 0.694857-31.817143 0.877714-30.793143 0.804571-61.549714 1.645714-92.306285 0.109714-4.388571-0.073143-8.777143 0.329143-13.165715 1.206857-13.348571 8.667429-20.48 21.942857-22.491428 4.973714-0.731429 10.020571-1.024 14.994286-1.353143 8.045714-0.438857 13.531429 2.925714 15.433143 10.532571 1.353143 5.376 1.609143 11.154286 1.499429 16.822858-0.292571 21.942857-1.170286 109.860571-1.243429 131.84M650.971429 821.979429c0 4.388571 0.365714 8.777143 0.877714 13.165714 0.548571 4.169143 3.328 6.948571 7.350857 7.460571 8.704 1.353143 17.371429 1.645714 26.148571 1.645715 14.994286 0 20.882286-7.936 20.882286-20.333715 0-10.605714-0.365714-21.211429-0.694857-31.817143-0.877714-30.793143-0.804571-61.549714-1.609143-92.306285-0.146286-4.388571 0.073143-8.777143-0.365714-13.165715-1.170286-13.348571-8.667429-20.48-21.906286-22.491428-4.973714-0.731429-10.020571-1.024-14.994286-1.353143-8.045714-0.438857-13.531429 2.925714-15.469714 10.532571a67.547429 67.547429 0 0 0-1.462857 16.822858c0.256 21.942857 1.170286 109.860571 1.243429 131.84M618.24 369.92c-30.390857-0.182857-55.954286-0.475429-64.256 0.658286-13.824 1.828571-23.296-7.314286-21.869714-22.784 0.146286-1.901714 0.109714-3.803429 0.292571-5.668572 1.060571-10.422857 3.291429-13.019429 13.531429-14.884571 14.409143-2.56 41.691429-2.925714 72.301714-2.523429 30.610286-0.438857 57.856 0 72.265143 2.56 10.24 1.828571 12.507429 4.425143 13.494857 14.848 0.182857 1.865143 0.146286 3.766857 0.329143 5.668572 1.389714 15.433143-8.045714 24.576-21.869714 22.784-8.265143-1.097143-33.865143-0.841143-64.219429-0.658286" fill="#EF3E22" p-id="9316"></path></svg>