<?xml version="1.0" standalone="no"?><!DOCTYPE svg PUBLIC "-//W3C//DTD SVG 1.1//EN" "http://www.w3.org/Graphics/SVG/1.1/DTD/svg11.dtd"><svg t="1719796902160" class="icon" viewBox="0 0 2602 1024" version="1.1" xmlns="http://www.w3.org/2000/svg" p-id="11355" xmlns:xlink="http://www.w3.org/1999/xlink" width="325.25" height="128"><path d="M1227.80953884 142.97859609v282.39024324S1239.01334319 171.79170071 1504.09891263 142.97859609c4.63079433-0.52698563 169.82759628 0 169.82759627-1e-8v165.7792282S1738.12453589 154.65394546 1920.98667484 142.97859609c5.65734278-0.33264486 158.43004728 0 158.43004724-1e-8v176.59435153H1954.26425136s-117.88615265 15.91805825-116.25035182 129.75584225c1.58095633 110.34382378 115.47418092 124.32026247 115.47418091 124.32026307h125.92864164v178.25817012h-159.28967775c-5.65734278 0-168.08091423-8.4025555-246.20053545-164.91900155v165.75120921s-165.00246114 0.41610382-169.82759626 1e-8c-32.66832475-2.60690864-254.76941337-37.18823787-277.1209853-288.21390845-0.36066323-4.24270948 0 288.21390844-1e-8 288.21390844h-196.6716597V408.70262852s-6.46212818 218.27448297-234.80298584 240.76435958c-6.48955103 0.63786686-93.48327218 0-93.48327219 0v103.27244261H526.50764771V142.97859609h268.16342642c217.05478658 16.94401058 235.63519408 231.61365153 235.63519349 231.61365212V142.97859609h197.50327122zM701.32670214 305.48562652v181.36404547s81.97484136 0.52698563 81.97484134 0 75.09660874-13.31174632 77.03763156-89.54518861c1.774701-69.21750291-66.80493505-93.31635363-78.67402851-91.51423039l-80.33844439-0.30462647z m965.91651166 14.66974677h-131.58598443c-3.91066074 0-114.39278798 17.69275926-111.25889427 132.50105551 2.91213066 105.21346605 108.09757835 121.24240552 108.09757832 121.24240553h135.63494864c-64.36494495-134.08201127-0.88764826-253.74346104-0.88764826-253.74346105z" fill="#EB3200" p-id="11356"></path></svg>